<svg xmlns="http://www.w3.org/2000/svg" xmlns:xlink="http://www.w3.org/1999/xlink" xml:space="preserve" version="1.1" style="shape-rendering:geometricPrecision;text-rendering:geometricPrecision;image-rendering:optimizeQuality;" viewBox="0 0 383.94 329.15" x="0px" y="0px" fill-rule="evenodd" clip-rule="evenodd"><defs><style type="text/css">
   
    .fil0 {fill:black;fill-rule:nonzero}
   
  </style></defs><g><path class="fil0" d="M3.58 251.72l118.22 -95.99 -121.8 -111.9 0 195.27c0,4.61 1.31,8.93 3.58,12.62z"/><path class="fil0" d="M262.29 155.58l118.18 95.96c2.2,-3.65 3.47,-7.9 3.47,-12.44l0 -195.27 -121.65 111.75z"/><path class="fil0" d="M359.71 0l-335.49 0c-16.61,0 -25.08,18.49 -13.04,29.58l170 156.19c6.26,5.75 15.31,5.75 21.57,0 56.71,-52.1 113.24,-104.02 170.01,-156.19 12.06,-11.08 3.57,-29.58 -13.05,-29.58z"/><path class="fil0" d="M365.5 262.62l-116.63 -94.7 -33.89 31.13c-13.22,12.15 -32.8,12.15 -46.03,0l-33.73 -30.99 -116.54 94.62c1.79,0.42 3.64,0.64 5.54,0.64l335.49 0c2,0 3.94,-0.24 5.79,-0.7z"/></g><text x="0" y="278.32" fill="#000000" font-size="5px" font-weight="bold" font-family="'Helvetica Neue', Helvetica, Arial-Unicode, Arial, Sans-serif">Created by Maniacco</text><text x="0" y="283.32" fill="#000000" font-size="5px" font-weight="bold" font-family="'Helvetica Neue', Helvetica, Arial-Unicode, Arial, Sans-serif">from the Noun Project</text></svg>