<svg width="600" height="410" xmlns="http://www.w3.org/2000/svg">
 <g>
  <title>Layer 1</title>
  <g stroke="null">

   <g stroke="null">
    <path stroke="null" fill-rule="nonzero" fill="white" d="m8.44445,391.31136l183.38632,-148.90249l-188.93972,-173.58255l0,302.90853c0,7.15117 2.03211,13.85248 5.5534,19.57651z" class="fil0"/>
    <path stroke="null" fill-rule="nonzero" fill="white" d="m409.76297,242.17618l183.32427,148.85596c3.4127,-5.66199 5.38277,-12.25471 5.38277,-19.29729l0,-302.90853l-188.70704,173.34987z" class="fil0"/>
    <path stroke="null" fill-rule="nonzero" fill="white" d="m560.88372,0.83594l-520.4219,0c-25.76592,0 -38.90483,28.68223 -20.22803,45.88536l263.70897,242.28649c9.7107,8.91957 23.74932,8.91957 33.46001,0c87.97021,-80.81904 175.6612,-161.35887 263.72448,-242.28649c18.70782,-17.18762 5.53789,-45.88536 -20.24354,-45.88536z" class="fil0"/>
    <path stroke="null" fill-rule="nonzero" fill="white" d="m569.86534,408.21976l-180.91987,-146.90141l-52.57116,48.28977c-20.50725,18.84744 -50.88032,18.84744 -71.40308,0l-52.32296,-48.07259l-180.78026,146.77731c2.7767,0.65152 5.64647,0.99279 8.59381,0.99279l520.4219,0c3.10246,0 6.11184,-0.3723 8.98162,-1.08586z" class="fil0"/>
   </g>
  </g>
 </g>

</svg>