<svg width="600" height="600" xmlns="http://www.w3.org/2000/svg">
 <g>
  <title>Layer 1</title>
  <g stroke="null" fill="white" id="svg_1">
   <path stroke="null" id="svg_2" d="m410.75963,23.91079c-35.31933,-14.21406 -72.71497,-21.42528 -111.14503,-21.42528c-150.10346,0 -277.19651,112.16456 -295.61524,260.89871c-1.51071,12.16009 -2.27723,24.61785 -2.27723,37.01608c0,164.25054 133.63449,297.87015 297.89247,297.87015c59.37905,0 114.70969,-17.51828 161.21423,-47.59106c1.66699,-0.59535 3.15538,-1.5256 4.33864,-2.78328c79.75502,-53.50737 132.34704,-144.46992 132.34704,-247.51069c0,-122.31534 -73.29543,-230.84825 -186.7549,-276.47464l0.00002,0.00002zm-111.14503,552.03393c-53.85715,0 -104.11241,-15.59826 -146.6132,-42.40404c0.17117,-0.77395 0.28279,-1.58512 0.28279,-2.41862c0,-7.96285 0.75908,-23.80669 1.94235,-30.48953c13.61126,-75.37173 96.31329,-86.61647 144.39551,-86.61647c40.66264,0 136.26893,9.27263 145.60854,95.07792c0.16371,1.77862 0.40931,11.59451 0.59535,24.69972c-42.40404,26.66439 -92.51791,42.15102 -146.21133,42.15102l-0.00002,0zm168.26174,-57.55579c-0.13395,-5.64097 -0.27536,-10.12845 -0.45396,-11.68382c-7.84379,-72.02286 -70.57914,-115.01481 -167.80034,-115.01481c-95.05559,0 -154.13698,37.28401 -166.37148,105.00544c-0.96745,5.4698 -1.59258,14.05035 -1.94235,21.65597c-65.1763,-50.4413 -107.26035,-129.35539 -107.26035,-217.95885c0,-11.47543 0.70698,-23.01041 2.1135,-34.26258c17.03455,-137.57126 134.5945,-241.31902 273.46066,-241.31902c35.55004,0 70.14005,6.66796 102.80262,19.81038c104.95336,42.218 172.76409,142.60944 172.76409,255.77123c0,88.62578 -42.09148,167.5622 -107.31243,217.99606l0.00004,0zm-168.25428,-370.77861c-54.79483,0 -93.06861,40.86357 -93.06861,99.37191c0,61.73813 41.74915,111.96363 93.06861,111.96363c51.31946,0 93.06861,-50.2255 93.06861,-111.96363c0,-58.50834 -38.27378,-99.37191 -93.06861,-99.37191zm0,189.00235c-39.01052,0 -70.74286,-40.20867 -70.74286,-89.63788c0,-46.08035 28.42812,-77.04616 70.74286,-77.04616c42.31474,0 70.74286,30.95837 70.74286,77.04616c0,49.4292 -31.73977,89.63788 -70.74286,89.63788z"/>
  </g>
 </g>
</svg>